<?xml version="1.0" encoding="UTF-8" standalone="no"?>
<!DOCTYPE svg PUBLIC "-//W3C//DTD SVG 1.1//EN" "http://www.w3.org/Graphics/SVG/1.1/DTD/svg11.dtd">
<svg width="100%" height="100%" viewBox="0 0 2000 2000" version="1.1" xmlns="http://www.w3.org/2000/svg" xmlns:xlink="http://www.w3.org/1999/xlink" xml:space="preserve" xmlns:serif="http://www.serif.com/" style="fill-rule:evenodd;clip-rule:evenodd;stroke-linejoin:round;stroke-miterlimit:2;">
    <g transform="matrix(25.633757,0,0,25.633757,-281.744262,-281.645572)">
        <path d="M80.504,19.629L73.754,19.629L73.754,17.692C73.754,15.18 71.711,13.133 69.195,13.133C66.684,13.133 64.637,15.176 64.637,17.692L64.637,19.629L54.559,19.629L54.559,17.692C54.559,15.18 52.516,13.133 50,13.133C47.489,13.133 45.442,15.176 45.442,17.692L45.442,19.629L35.364,19.629L35.364,17.692C35.364,15.18 33.321,13.133 30.805,13.133C28.293,13.133 26.246,15.176 26.246,17.692L26.246,19.629L19.496,19.629C16.473,19.629 14.012,22.09 14.012,25.113L14.012,81.379C14.012,84.403 16.473,86.864 19.496,86.864L70.859,86.864C71.059,86.864 71.25,86.786 71.391,86.645L85.774,72.262C85.914,72.121 85.992,71.93 85.992,71.731L85.992,25.114C85.992,22.09 83.532,19.629 80.504,19.629L80.504,19.629ZM66.145,17.692C66.145,16.008 67.516,14.637 69.2,14.637C70.883,14.637 72.254,16.008 72.254,17.692L72.254,23.067C72.254,24.75 70.883,26.121 69.2,26.121C67.516,26.121 66.145,24.75 66.145,23.067L66.145,17.692ZM46.946,17.692C46.946,16.008 48.317,14.637 50.001,14.637C51.684,14.637 53.055,16.008 53.055,17.692L53.055,23.067C53.055,24.75 51.684,26.121 50.001,26.121C48.317,26.121 46.946,24.75 46.946,23.067L46.946,17.692ZM27.751,17.692C27.751,16.008 29.122,14.637 30.806,14.637C32.489,14.637 33.86,16.008 33.86,17.692L33.86,23.067C33.86,24.75 32.489,26.121 30.806,26.121C29.122,26.121 27.751,24.75 27.751,23.067L27.751,17.692ZM19.497,21.133L26.247,21.133L26.247,23.07C26.247,25.582 28.29,27.629 30.806,27.629C33.317,27.629 35.364,25.586 35.364,23.07L35.364,21.133L45.446,21.133L45.446,23.07C45.446,25.582 47.489,27.629 50.005,27.629C52.517,27.629 54.564,25.586 54.564,23.07L54.564,21.133L64.645,21.133L64.645,23.07C64.645,25.582 66.689,27.629 69.204,27.629C71.716,27.629 73.763,25.586 73.763,23.07L73.763,21.133L80.513,21.133C82.708,21.133 84.493,22.918 84.493,25.113L84.493,31.645L15.516,31.645L15.516,25.113C15.516,22.918 17.301,21.133 19.497,21.133ZM15.517,81.379L15.517,33.149L84.49,33.149L84.49,70.977L75.595,70.977C72.572,70.977 70.111,73.438 70.111,76.461L70.111,85.356L19.498,85.36C17.302,85.36 15.517,83.575 15.517,81.379L15.517,81.379ZM83.423,72.484L71.611,84.296L71.611,76.464C71.611,74.269 73.396,72.484 75.591,72.484L83.423,72.484ZM30.103,39.293L23.177,39.293C22.138,39.293 21.294,40.137 21.294,41.176L21.294,48.102C21.294,49.141 22.138,49.985 23.177,49.985L30.103,49.985C31.142,49.985 31.985,49.141 31.985,48.102L31.985,41.176C31.985,40.141 31.142,39.293 30.103,39.293ZM30.482,48.102C30.482,48.309 30.314,48.481 30.103,48.481L23.177,48.481C22.97,48.481 22.798,48.313 22.798,48.102L22.798,41.176C22.798,40.969 22.97,40.797 23.177,40.797L30.103,40.797C30.31,40.797 30.482,40.969 30.482,41.176L30.482,48.102ZM38.751,49.985L45.677,49.985C46.716,49.985 47.56,49.141 47.56,48.102L47.56,41.176C47.56,40.137 46.716,39.293 45.677,39.293L38.751,39.293C37.712,39.293 36.868,40.137 36.868,41.176L36.868,48.102C36.868,49.141 37.712,49.985 38.751,49.985ZM38.372,41.176C38.372,40.969 38.544,40.797 38.751,40.797L45.677,40.797C45.884,40.797 46.056,40.969 46.056,41.176L46.056,48.102C46.056,48.309 45.888,48.481 45.677,48.481L38.751,48.481C38.544,48.481 38.372,48.313 38.372,48.102L38.372,41.176ZM61.251,39.293L54.325,39.293C53.286,39.293 52.443,40.137 52.443,41.176L52.443,48.102C52.443,49.141 53.286,49.985 54.325,49.985L61.251,49.985C62.29,49.985 63.134,49.141 63.134,48.102L63.134,41.176C63.134,40.141 62.29,39.293 61.251,39.293ZM61.63,48.102C61.63,48.309 61.458,48.481 61.251,48.481L54.325,48.481C54.118,48.481 53.946,48.313 53.946,48.102L53.946,41.176C53.946,40.969 54.118,40.797 54.325,40.797L61.251,40.797C61.458,40.797 61.63,40.969 61.63,41.176L61.63,48.102ZM69.9,49.985L76.825,49.985C77.864,49.985 78.708,49.141 78.708,48.102L78.708,41.176C78.708,40.137 77.864,39.293 76.825,39.293L69.9,39.293C68.86,39.293 68.017,40.137 68.017,41.176L68.017,48.102C68.017,49.141 68.86,49.985 69.9,49.985ZM69.521,41.176C69.521,40.969 69.692,40.797 69.9,40.797L76.825,40.797C77.032,40.797 77.204,40.969 77.204,41.176L77.204,48.102C77.204,48.309 77.032,48.481 76.825,48.481L69.9,48.481C69.692,48.481 69.521,48.313 69.521,48.102L69.521,41.176ZM30.103,53.91L23.177,53.91C22.138,53.91 21.294,54.754 21.294,55.793L21.294,62.719C21.294,63.758 22.138,64.602 23.177,64.602L30.103,64.602C31.142,64.602 31.985,63.758 31.985,62.719L31.985,55.793C31.985,54.754 31.142,53.91 30.103,53.91ZM30.482,62.719C30.482,62.926 30.314,63.098 30.103,63.098L23.177,63.098C22.97,63.098 22.798,62.926 22.798,62.719L22.798,55.793C22.798,55.586 22.97,55.414 23.177,55.414L30.103,55.414C30.31,55.414 30.482,55.586 30.482,55.793L30.482,62.719ZM61.252,53.91L54.326,53.91C53.287,53.91 52.443,54.754 52.443,55.793L52.443,62.719C52.443,63.758 53.287,64.602 54.326,64.602L61.252,64.602C62.291,64.602 63.134,63.758 63.134,62.719L63.134,55.793C63.134,54.754 62.291,53.91 61.252,53.91ZM61.63,62.719C61.63,62.926 61.459,63.098 61.252,63.098L54.326,63.098C54.119,63.098 53.947,62.926 53.947,62.719L53.947,55.793C53.947,55.586 54.119,55.414 54.326,55.414L61.252,55.414C61.459,55.414 61.63,55.586 61.63,55.793L61.63,62.719ZM76.825,64.602C77.865,64.602 78.708,63.758 78.708,62.719L78.708,55.793C78.708,54.754 77.864,53.91 76.825,53.91L69.9,53.91C68.861,53.91 68.017,54.754 68.017,55.793L68.017,62.719C68.017,63.758 68.861,64.602 69.9,64.602L76.825,64.602ZM69.521,62.719L69.521,55.793C69.521,55.586 69.693,55.414 69.9,55.414L76.825,55.414C77.032,55.414 77.204,55.586 77.204,55.793L77.204,62.719C77.204,62.926 77.032,63.098 76.825,63.098L69.9,63.098C69.693,63.098 69.521,62.926 69.521,62.719ZM30.103,68.523L23.177,68.523C22.138,68.523 21.294,69.367 21.294,70.406L21.294,77.332C21.294,78.371 22.138,79.215 23.177,79.215L30.103,79.215C31.142,79.215 31.986,78.371 31.986,77.332L31.986,70.406C31.986,69.371 31.142,68.523 30.103,68.523ZM30.482,77.332C30.482,77.539 30.314,77.711 30.103,77.711L23.177,77.711C22.97,77.711 22.798,77.539 22.798,77.332L22.798,70.406C22.798,70.199 22.97,70.027 23.177,70.027L30.103,70.027C30.31,70.027 30.482,70.199 30.482,70.406L30.482,77.332ZM45.677,68.523L38.751,68.523C37.712,68.523 36.868,69.367 36.868,70.406L36.868,77.332C36.868,78.371 37.712,79.215 38.751,79.215L45.677,79.215C46.716,79.215 47.559,78.371 47.559,77.332L47.559,70.406C47.559,69.371 46.716,68.523 45.677,68.523ZM46.056,77.332C46.056,77.539 45.888,77.711 45.677,77.711L38.751,77.711C38.544,77.711 38.372,77.539 38.372,77.332L38.372,70.406C38.372,70.199 38.544,70.027 38.751,70.027L45.677,70.027C45.884,70.027 46.056,70.199 46.056,70.406L46.056,77.332ZM61.251,68.523L54.325,68.523C53.286,68.523 52.442,69.367 52.442,70.406L52.442,77.332C52.442,78.371 53.286,79.215 54.325,79.215L61.251,79.215C62.29,79.215 63.133,78.371 63.133,77.332L63.133,70.406C63.133,69.371 62.29,68.523 61.251,68.523ZM61.629,77.332C61.629,77.539 61.458,77.711 61.251,77.711L54.325,77.711C54.118,77.711 53.946,77.539 53.946,77.332L53.946,70.406C53.946,70.199 54.118,70.027 54.325,70.027L61.251,70.027C61.458,70.027 61.629,70.199 61.629,70.406L61.629,77.332ZM48.774,55.453C49.067,55.746 49.067,56.223 48.774,56.516L43.556,61.734C43.407,61.883 43.216,61.953 43.024,61.953C42.833,61.953 42.638,61.879 42.493,61.734L39.884,59.125C39.591,58.832 39.591,58.355 39.884,58.062C40.177,57.77 40.653,57.77 40.946,58.062L43.024,60.141L47.712,55.453C48.005,55.16 48.481,55.16 48.774,55.453L48.774,55.453ZM47.56,62.719C47.56,63.758 46.716,64.601 45.677,64.601L38.751,64.601C37.712,64.601 36.868,63.758 36.868,62.719L36.868,55.793C36.868,54.754 37.712,53.91 38.751,53.91L43.571,53.91C43.985,53.91 44.325,54.246 44.325,54.664C44.325,55.078 43.989,55.418 43.571,55.418L38.751,55.418C38.544,55.418 38.372,55.59 38.372,55.797L38.372,62.723C38.372,62.93 38.544,63.102 38.751,63.102L45.677,63.102C45.884,63.102 46.056,62.93 46.056,62.723C46.056,62.309 46.392,61.969 46.81,61.969C47.224,61.965 47.56,62.301 47.56,62.719L47.56,62.719Z" style="fill-rule:nonzero;"/>
    </g>
</svg>
