<?xml version="1.0" encoding="UTF-8" standalone="no"?>
<!DOCTYPE svg PUBLIC "-//W3C//DTD SVG 1.1//EN" "http://www.w3.org/Graphics/SVG/1.1/DTD/svg11.dtd">
<svg width="100%" height="100%" viewBox="0 0 2000 2000" version="1.1" xmlns="http://www.w3.org/2000/svg" xmlns:xlink="http://www.w3.org/1999/xlink" xml:space="preserve" xmlns:serif="http://www.serif.com/" style="fill-rule:evenodd;clip-rule:evenodd;stroke-linejoin:round;stroke-miterlimit:2;">
    <g transform="matrix(32.033898,0,0,32.033898,-25.084746,-25.084746)">
        <path d="M61,2.5L15.083,2.5C14.807,2.5 14.583,2.724 14.583,3L14.583,5.205L11.333,5.205C11.057,5.205 10.833,5.429 10.833,5.705L10.833,7.997L6.751,7.997C6.475,7.997 6.251,8.221 6.251,8.497L6.251,11.664L3,11.664C2.724,11.664 2.5,11.888 2.5,12.164L2.5,54.963C2.5,58.567 5.434,61.499 9.041,61.5L54.958,61.5C58.565,61.5 61.5,58.568 61.5,54.963L61.5,3C61.5,2.724 61.276,2.5 61,2.5ZM7.251,8.998L10.833,8.998L10.833,54.614C10.833,55.6 10.03,56.403 9.042,56.403C8.054,56.403 7.251,55.6 7.251,54.613L7.251,8.998ZM3.5,54.963L3.5,12.665L6.251,12.665L6.251,54.614C6.251,56.152 7.503,57.403 9.042,57.403C10.581,57.403 11.833,56.152 11.833,54.614L11.833,6.205L14.583,6.205L14.583,54.963C14.583,58.016 12.097,60.5 9.041,60.5C5.985,60.5 3.5,58.016 3.5,54.963ZM60.5,54.963C60.5,58.016 58.014,60.5 54.958,60.5L12.515,60.5C14.357,59.342 15.583,57.293 15.583,54.963L15.583,3.5L60.5,3.5L60.5,54.963Z" style="fill-rule:nonzero;"/>
        <path d="M18.75,12.804L57,12.804C57.276,12.804 57.5,12.58 57.5,12.304L57.5,8.304C57.5,8.028 57.276,7.804 57,7.804L18.75,7.804C18.474,7.804 18.25,8.028 18.25,8.304L18.25,12.304C18.25,12.58 18.474,12.804 18.75,12.804ZM19.25,8.804L56.5,8.804L56.5,11.804L19.25,11.804L19.25,8.804Z" style="fill-rule:nonzero;"/>
        <path d="M18.75,28.996L37.875,28.996C38.151,28.996 38.375,28.772 38.375,28.496L38.375,16.496C38.375,16.22 38.151,15.996 37.875,15.996L18.75,15.996C18.474,15.996 18.25,16.22 18.25,16.496L18.25,28.496C18.25,28.772 18.474,28.996 18.75,28.996ZM19.25,16.996L37.375,16.996L37.375,27.996L19.25,27.996L19.25,16.996Z" style="fill-rule:nonzero;"/>
        <path d="M57,15.996L41.302,15.996C41.026,15.996 40.802,16.22 40.802,16.496C40.802,16.772 41.026,16.996 41.302,16.996L57,16.996C57.276,16.996 57.5,16.772 57.5,16.496C57.5,16.22 57.276,15.996 57,15.996Z" style="fill-rule:nonzero;"/>
        <path d="M57,18.996L41.302,18.996C41.026,18.996 40.802,19.22 40.802,19.496C40.802,19.772 41.026,19.996 41.302,19.996L57,19.996C57.276,19.996 57.5,19.772 57.5,19.496C57.5,19.22 57.276,18.996 57,18.996Z" style="fill-rule:nonzero;"/>
        <path d="M57,21.996L41.302,21.996C41.026,21.996 40.802,22.22 40.802,22.496C40.802,22.772 41.026,22.996 41.302,22.996L57,22.996C57.276,22.996 57.5,22.772 57.5,22.496C57.5,22.22 57.276,21.996 57,21.996Z" style="fill-rule:nonzero;"/>
        <path d="M57,24.996L41.302,24.996C41.026,24.996 40.802,25.22 40.802,25.496C40.802,25.772 41.026,25.996 41.302,25.996L57,25.996C57.276,25.996 57.5,25.772 57.5,25.496C57.5,25.22 57.276,24.996 57,24.996Z" style="fill-rule:nonzero;"/>
        <path d="M57,27.996L41.302,27.996C41.026,27.996 40.802,28.22 40.802,28.496C40.802,28.772 41.026,28.996 41.302,28.996L57,28.996C57.276,28.996 57.5,28.772 57.5,28.496C57.5,28.22 57.276,27.996 57,27.996Z" style="fill-rule:nonzero;"/>
        <path d="M18.75,42.804L28.313,42.804C28.589,42.804 28.813,42.58 28.813,42.304C28.813,42.028 28.589,41.804 28.313,41.804L18.75,41.804C18.474,41.804 18.25,42.028 18.25,42.304C18.25,42.58 18.474,42.804 18.75,42.804Z" style="fill-rule:nonzero;"/>
        <path d="M18.75,45.804L28.313,45.804C28.589,45.804 28.813,45.58 28.813,45.304C28.813,45.028 28.589,44.804 28.313,44.804L18.75,44.804C18.474,44.804 18.25,45.028 18.25,45.304C18.25,45.58 18.474,45.804 18.75,45.804Z" style="fill-rule:nonzero;"/>
        <path d="M18.75,48.804L28.313,48.804C28.589,48.804 28.813,48.58 28.813,48.304C28.813,48.028 28.589,47.804 28.313,47.804L18.75,47.804C18.474,47.804 18.25,48.028 18.25,48.304C18.25,48.58 18.474,48.804 18.75,48.804Z" style="fill-rule:nonzero;"/>
        <path d="M18.75,51.804L28.313,51.804C28.589,51.804 28.813,51.58 28.813,51.304C28.813,51.028 28.589,50.804 28.313,50.804L18.75,50.804C18.474,50.804 18.25,51.028 18.25,51.304C18.25,51.58 18.474,51.804 18.75,51.804Z" style="fill-rule:nonzero;"/>
        <path d="M18.75,54.804L28.313,54.804C28.589,54.804 28.813,54.58 28.813,54.304C28.813,54.028 28.589,53.804 28.313,53.804L18.75,53.804C18.474,53.804 18.25,54.028 18.25,54.304C18.25,54.58 18.474,54.804 18.75,54.804Z" style="fill-rule:nonzero;"/>
        <path d="M43.692,41.804L32.098,41.804C31.822,41.804 31.598,42.028 31.598,42.304C31.598,42.58 31.822,42.804 32.098,42.804L43.693,42.804C43.969,42.804 44.193,42.58 44.193,42.304C44.193,42.028 43.969,41.804 43.692,41.804Z" style="fill-rule:nonzero;"/>
        <path d="M43.692,44.804L32.098,44.804C31.822,44.804 31.598,45.028 31.598,45.304C31.598,45.58 31.822,45.804 32.098,45.804L43.693,45.804C43.969,45.804 44.193,45.58 44.193,45.304C44.193,45.028 43.969,44.804 43.692,44.804Z" style="fill-rule:nonzero;"/>
        <path d="M43.692,47.804L32.098,47.804C31.822,47.804 31.598,48.028 31.598,48.304C31.598,48.58 31.822,48.804 32.098,48.804L43.693,48.804C43.969,48.804 44.193,48.58 44.193,48.304C44.193,48.028 43.969,47.804 43.692,47.804Z" style="fill-rule:nonzero;"/>
        <path d="M43.692,50.804L32.098,50.804C31.822,50.804 31.598,51.028 31.598,51.304C31.598,51.58 31.822,51.804 32.098,51.804L43.693,51.804C43.969,51.804 44.193,51.58 44.193,51.304C44.193,51.028 43.969,50.804 43.692,50.804Z" style="fill-rule:nonzero;"/>
        <path d="M43.692,53.804L32.098,53.804C31.822,53.804 31.598,54.028 31.598,54.304C31.598,54.58 31.822,54.804 32.098,54.804L43.693,54.804C43.969,54.804 44.193,54.58 44.193,54.304C44.193,54.028 43.969,53.804 43.692,53.804Z" style="fill-rule:nonzero;"/>
        <path d="M57,41.804L47.437,41.804C47.161,41.804 46.937,42.028 46.937,42.304C46.937,42.58 47.161,42.804 47.437,42.804L57,42.804C57.276,42.804 57.5,42.58 57.5,42.304C57.5,42.028 57.276,41.804 57,41.804Z" style="fill-rule:nonzero;"/>
        <path d="M57,44.804L47.437,44.804C47.161,44.804 46.937,45.028 46.937,45.304C46.937,45.58 47.161,45.804 47.437,45.804L57,45.804C57.276,45.804 57.5,45.58 57.5,45.304C57.5,45.028 57.276,44.804 57,44.804Z" style="fill-rule:nonzero;"/>
        <path d="M57,47.804L47.437,47.804C47.161,47.804 46.937,48.028 46.937,48.304C46.937,48.58 47.161,48.804 47.437,48.804L57,48.804C57.276,48.804 57.5,48.58 57.5,48.304C57.5,48.028 57.276,47.804 57,47.804Z" style="fill-rule:nonzero;"/>
        <path d="M57,50.804L47.437,50.804C47.161,50.804 46.937,51.028 46.937,51.304C46.937,51.58 47.161,51.804 47.437,51.804L57,51.804C57.276,51.804 57.5,51.58 57.5,51.304C57.5,51.028 57.276,50.804 57,50.804Z" style="fill-rule:nonzero;"/>
        <path d="M57,53.804L47.437,53.804C47.161,53.804 46.937,54.028 46.937,54.304C46.937,54.58 47.161,54.804 47.437,54.804L57,54.804C57.276,54.804 57.5,54.58 57.5,54.304C57.5,54.028 57.276,53.804 57,53.804Z" style="fill-rule:nonzero;"/>
        <path d="M18.75,39.726L28.313,39.726C28.589,39.726 28.813,39.502 28.813,39.226L28.813,32.976C28.813,32.7 28.589,32.476 28.313,32.476L18.75,32.476C18.474,32.476 18.25,32.7 18.25,32.976L18.25,39.226C18.25,39.502 18.474,39.726 18.75,39.726ZM19.25,33.476L27.813,33.476L27.813,38.726L19.25,38.726L19.25,33.476Z" style="fill-rule:nonzero;"/>
        <path d="M43.692,32.476L32.098,32.476C31.822,32.476 31.598,32.7 31.598,32.976L31.598,39.226C31.598,39.502 31.822,39.726 32.098,39.726L43.693,39.726C43.969,39.726 44.193,39.502 44.193,39.226L44.193,32.976C44.192,32.699 43.969,32.476 43.692,32.476ZM43.193,38.726L32.598,38.726L32.598,33.476L43.193,33.476L43.193,38.726Z" style="fill-rule:nonzero;"/>
        <path d="M57,32.476L47.437,32.476C47.161,32.476 46.937,32.7 46.937,32.976L46.937,39.226C46.937,39.502 47.161,39.726 47.437,39.726L57,39.726C57.276,39.726 57.5,39.502 57.5,39.226L57.5,32.976C57.5,32.699 57.276,32.476 57,32.476ZM56.5,38.726L47.937,38.726L47.937,33.476L56.5,33.476L56.5,38.726Z" style="fill-rule:nonzero;"/>
    </g>
</svg>
