<?xml version="1.0" encoding="UTF-8" standalone="no"?>
<!DOCTYPE svg PUBLIC "-//W3C//DTD SVG 1.1//EN" "http://www.w3.org/Graphics/SVG/1.1/DTD/svg11.dtd">
<svg width="100%" height="100%" viewBox="0 0 2000 2000" version="1.1" xmlns="http://www.w3.org/2000/svg" xmlns:xlink="http://www.w3.org/1999/xlink" xml:space="preserve" xmlns:serif="http://www.serif.com/" style="fill-rule:evenodd;clip-rule:evenodd;stroke-linejoin:round;stroke-miterlimit:2;">
    <g transform="matrix(25.634531,0,0,25.634531,-281.745458,-281.794755)">
        <path d="M58.973,20.809L58.973,15.645C58.973,15.231 59.309,14.891 59.727,14.891C60.141,14.891 60.481,15.227 60.481,15.645L60.481,20.809C60.481,21.223 60.145,21.563 59.727,21.563C59.313,21.563 58.973,21.223 58.973,20.809ZM47.793,26.063C47.941,26.211 48.133,26.282 48.324,26.282C48.516,26.282 48.711,26.207 48.855,26.063C49.148,25.77 49.148,25.293 48.855,25L45.203,21.348C44.91,21.055 44.434,21.055 44.141,21.348C43.848,21.641 43.848,22.118 44.141,22.411L47.793,26.063ZM38.434,37.688L43.598,37.688C44.012,37.688 44.352,37.352 44.352,36.934C44.352,36.52 44.016,36.18 43.598,36.18L38.434,36.18C38.02,36.18 37.68,36.516 37.68,36.934C37.684,37.348 38.02,37.688 38.434,37.688ZM47.793,47.805L44.141,51.457C43.848,51.75 43.848,52.227 44.141,52.52C44.289,52.668 44.481,52.738 44.672,52.738C44.863,52.738 45.059,52.664 45.203,52.52L48.855,48.867C49.148,48.574 49.148,48.098 48.855,47.805C48.563,47.512 48.086,47.512 47.793,47.805ZM71.66,47.805C71.367,47.512 70.89,47.512 70.597,47.805C70.305,48.098 70.305,48.574 70.597,48.867L74.25,52.52C74.398,52.668 74.59,52.738 74.781,52.738C74.972,52.738 75.168,52.664 75.312,52.52C75.605,52.227 75.605,51.75 75.312,51.457L71.66,47.805ZM75.097,36.934C75.097,37.348 75.433,37.688 75.851,37.688L81.016,37.688C81.43,37.688 81.769,37.352 81.769,36.934C81.769,36.52 81.433,36.18 81.016,36.18L75.851,36.18C75.437,36.184 75.097,36.52 75.097,36.934ZM71.129,26.286C71.32,26.286 71.515,26.212 71.66,26.067L75.312,22.415C75.605,22.122 75.605,21.645 75.312,21.352C75.019,21.059 74.543,21.059 74.25,21.352L70.597,25.005C70.304,25.298 70.304,25.774 70.597,26.067C70.742,26.212 70.937,26.286 71.129,26.286ZM46.832,36.934C46.832,29.825 52.617,24.039 59.727,24.039C66.836,24.039 72.622,29.824 72.622,36.934C72.622,40.453 71.227,43.742 68.7,46.196C67.462,47.395 66.833,48.879 66.833,50.602L66.833,51.246C68.129,51.582 69.09,52.75 69.09,54.149C69.09,55.699 67.907,56.965 66.399,57.125C66.376,60.789 63.391,63.762 59.723,63.762C56.055,63.762 53.071,60.789 53.047,57.125C51.54,56.961 50.356,55.696 50.356,54.149C50.356,52.75 51.321,51.582 52.614,51.246L52.614,50.602C52.614,48.879 51.985,47.395 50.747,46.196C48.223,43.742 46.833,40.453 46.833,36.934L46.832,36.934ZM64.891,57.161L54.563,57.161C54.602,59.977 56.902,62.259 59.727,62.259C62.555,62.263 64.852,59.981 64.891,57.161ZM66.082,52.645L53.371,52.645C52.539,52.645 51.863,53.321 51.863,54.153C51.863,54.985 52.539,55.661 53.371,55.661L66.082,55.661C66.914,55.661 67.59,54.985 67.59,54.153C67.586,53.321 66.91,52.645 66.082,52.645ZM48.336,36.934C48.336,40.044 49.567,42.95 51.801,45.114C53.344,46.606 54.125,48.454 54.125,50.602L54.125,51.141L58.977,51.141L58.977,42.516L53.238,36.778C52.945,36.485 52.945,36.009 53.238,35.716C53.531,35.423 54.008,35.423 54.301,35.716L59.731,41.145L65.16,35.716C65.453,35.423 65.93,35.423 66.223,35.716C66.516,36.009 66.516,36.485 66.223,36.778L60.484,42.516L60.484,51.141L65.336,51.141L65.336,50.602C65.336,48.454 66.117,46.61 67.66,45.114C69.895,42.95 71.125,40.044 71.125,36.934C71.125,30.653 66.016,25.543 59.734,25.543C53.445,25.543 48.336,30.653 48.336,36.934ZM84.285,74.45L56.281,84.345C55.152,84.743 53.89,85.114 52.324,85.114L40.937,85.11C39.269,85.11 37.793,84.771 36.293,84.036C35.234,83.517 34.113,82.896 33.027,82.294C30.761,81.036 28.418,79.735 26.457,79.271C25.632,79.075 24.875,78.958 24.109,78.849L24.109,78.985C24.109,80.232 23.097,81.243 21.851,81.243L15.394,81.239C14.148,81.239 13.136,80.228 13.136,78.982L13.136,60.306C13.136,59.059 14.148,58.048 15.394,58.048L21.851,58.048C23.097,58.048 24.109,59.059 24.109,60.306L24.109,60.895C24.961,60.856 25.773,60.809 26.546,60.766C31.972,60.458 35.558,60.255 40.245,62.977C40.863,63.337 41.41,63.681 41.894,63.985C43.894,65.243 45.101,66.005 48.12,66.005L51.226,66.005C55.007,66.005 58.515,68.012 59.785,70.587L77.465,67.145C81.031,66.43 83.535,66.602 85.109,67.673C86.023,68.294 86.593,69.2 86.8,70.368C87.133,72.223 86.168,73.786 84.285,74.45L84.285,74.45ZM22.601,60.305C22.601,59.891 22.261,59.551 21.847,59.551L15.394,59.551C14.98,59.551 14.64,59.891 14.64,60.305L14.64,78.981C14.64,79.395 14.98,79.735 15.394,79.735L21.851,79.735C22.265,79.735 22.605,79.395 22.605,78.981L22.601,60.305ZM85.32,70.637C85.183,69.876 84.836,69.313 84.261,68.923C83.055,68.102 80.867,68.001 77.758,68.626L60.246,72.036C60.273,72.239 60.289,72.438 60.289,72.645C60.289,74.567 58.726,76.126 56.808,76.126L44.687,76.122C44.273,76.122 43.933,75.786 43.933,75.368C43.933,74.954 44.269,74.614 44.687,74.614L56.804,74.614C57.894,74.614 58.781,73.727 58.781,72.637C58.781,70.266 55.48,67.508 51.226,67.508L48.12,67.508C44.667,67.508 43.167,66.563 41.093,65.258C40.597,64.946 40.085,64.622 39.492,64.278C35.195,61.782 31.972,61.966 26.633,62.266C25.832,62.313 24.992,62.356 24.109,62.399L24.109,77.321C24.984,77.442 25.84,77.571 26.804,77.798C28.969,78.313 31.402,79.665 33.758,80.97C34.875,81.591 35.929,82.177 36.953,82.677C38.258,83.313 39.488,83.598 40.937,83.598L52.328,83.606C53.594,83.606 54.625,83.333 55.781,82.923L83.781,73.028C84.473,72.786 85.59,72.153 85.32,70.638L85.32,70.637Z" style="fill-rule:nonzero;"/>
    </g>
</svg>
