<?xml version="1.0" encoding="UTF-8" standalone="no"?>
<!DOCTYPE svg PUBLIC "-//W3C//DTD SVG 1.1//EN" "http://www.w3.org/Graphics/SVG/1.1/DTD/svg11.dtd">
<svg width="100%" height="100%" viewBox="0 0 2000 2000" version="1.1" xmlns="http://www.w3.org/2000/svg" xmlns:xlink="http://www.w3.org/1999/xlink" xml:space="preserve" xmlns:serif="http://www.serif.com/" style="fill-rule:evenodd;clip-rule:evenodd;stroke-linejoin:round;stroke-miterlimit:2;">
    <g transform="matrix(24.041704,0,0,24.022771,-202.067397,-201.10314)">
        <path d="M41.762,54.082C41.477,54.082 41.25,53.852 41.25,53.57C41.25,53.285 41.481,53.059 41.762,53.059L47.215,53.059C47.5,53.059 47.727,53.289 47.727,53.57C47.727,53.855 47.496,54.082 47.215,54.082L41.762,54.082ZM49.024,47.738C49.024,47.453 48.793,47.226 48.512,47.226L35.586,47.226C35.301,47.226 35.074,47.457 35.074,47.738C35.074,48.023 35.305,48.25 35.586,48.25L48.512,48.25C48.793,48.25 49.024,48.023 49.024,47.738ZM37.813,59.398C37.813,59.683 38.043,59.91 38.324,59.91L47.653,59.91C47.938,59.91 48.164,59.679 48.164,59.398C48.164,59.113 47.934,58.886 47.653,58.886L38.324,58.886C38.043,58.886 37.813,59.113 37.813,59.398ZM49.981,64.715L44.172,64.715C43.887,64.715 43.66,64.945 43.66,65.226C43.66,65.511 43.891,65.738 44.172,65.738L49.981,65.738C50.266,65.738 50.492,65.508 50.492,65.226C50.492,64.945 50.262,64.715 49.981,64.715ZM52,41.395L45.028,41.395C44.742,41.395 44.516,41.625 44.516,41.906C44.516,42.191 44.746,42.418 45.028,42.418L52,42.418C52.285,42.418 52.512,42.188 52.512,41.906C52.516,41.625 52.285,41.395 52,41.395ZM36.301,36.078C36.301,36.363 36.532,36.59 36.813,36.59L53.008,36.59C53.293,36.59 53.52,36.359 53.52,36.078C53.52,35.793 53.289,35.566 53.008,35.566L36.813,35.566C36.528,35.566 36.301,35.797 36.301,36.078ZM55.731,36.594L62.587,36.594C62.872,36.594 63.098,36.363 63.098,36.082C63.098,35.797 62.868,35.57 62.587,35.57L55.731,35.57C55.446,35.57 55.219,35.801 55.219,36.082C55.219,36.363 55.446,36.594 55.731,36.594ZM27.516,48.25L32.84,48.25C33.126,48.25 33.352,48.019 33.352,47.738C33.352,47.453 33.122,47.226 32.84,47.226L27.516,47.226C27.231,47.226 27.004,47.457 27.004,47.738C27.004,48.023 27.235,48.25 27.516,48.25ZM27.516,54.082L39,54.082C39.285,54.082 39.512,53.851 39.512,53.57C39.512,53.285 39.281,53.058 39,53.058L27.516,53.054C27.231,53.054 27.004,53.285 27.004,53.566C27.004,53.851 27.235,54.082 27.516,54.082L27.516,54.082ZM27.516,59.91L35.579,59.91C35.864,59.91 36.09,59.679 36.09,59.398C36.09,59.113 35.86,58.886 35.579,58.886L27.516,58.886C27.231,58.886 27.004,59.117 27.004,59.398C27.004,59.679 27.235,59.91 27.516,59.91ZM42.032,30.25C42.032,30.535 42.263,30.762 42.544,30.762L50.743,30.762C51.028,30.762 51.255,30.531 51.255,30.25C51.255,29.965 51.024,29.738 50.743,29.738L42.544,29.738C42.263,29.734 42.032,29.965 42.032,30.25ZM27.516,30.762L39.801,30.762C40.086,30.762 40.313,30.531 40.313,30.25C40.313,29.965 40.082,29.738 39.801,29.738L27.516,29.734C27.231,29.734 27.004,29.965 27.004,30.246C27.004,30.531 27.235,30.762 27.516,30.762L27.516,30.762ZM27.516,42.422L42.297,42.422C42.582,42.422 42.809,42.191 42.809,41.91C42.809,41.625 42.578,41.398 42.297,41.398L27.516,41.394C27.231,41.394 27.004,41.625 27.004,41.906C27.004,42.191 27.235,42.422 27.516,42.422L27.516,42.422ZM27.516,24.934L43.5,24.934C43.785,24.934 44.012,24.703 44.012,24.422C44.012,24.137 43.781,23.91 43.5,23.91L27.516,23.906C27.231,23.906 27.004,24.137 27.004,24.418C27.004,24.703 27.235,24.934 27.516,24.934L27.516,24.934ZM41.426,64.715L27.516,64.715C27.231,64.715 27.004,64.945 27.004,65.226C27.004,65.512 27.235,65.738 27.516,65.738L41.422,65.738C41.707,65.738 41.934,65.508 41.934,65.226C41.938,64.945 41.707,64.715 41.426,64.715L41.426,64.715ZM27.516,36.594L34.016,36.594C34.301,36.594 34.528,36.363 34.528,36.082C34.528,35.797 34.297,35.57 34.016,35.57L27.516,35.57C27.231,35.57 27.004,35.801 27.004,36.082C27.004,36.363 27.235,36.594 27.516,36.594ZM87.934,84.782C87.77,85.395 87.376,85.907 86.829,86.227L84.512,87.563C84.137,87.778 83.731,87.879 83.329,87.879C82.508,87.879 81.708,87.453 81.266,86.692L75.907,77.411C75.461,76.641 75.508,75.731 75.93,75.016L73.215,70.317C72.032,70.782 70.782,71.106 69.481,71.286L69.481,72.735C69.481,75.375 67.333,77.528 64.688,77.528L61.012,77.528L61.012,81.293C61.012,83.934 58.864,86.086 56.219,86.086L16.774,86.086C14.134,86.086 11.981,83.938 11.981,81.293L11.985,25.469C11.985,22.829 14.134,20.676 16.778,20.676L20.454,20.676L20.454,16.911C20.454,14.27 22.602,12.118 25.247,12.118L54.185,12.122C54.322,12.122 54.451,12.176 54.548,12.27L69.337,27.059C69.435,27.157 69.486,27.286 69.486,27.422L69.486,38.664C77.517,39.766 83.728,46.649 83.728,54.976C83.728,60.168 81.31,64.801 77.544,67.824L80.259,72.524C80.474,72.524 80.689,72.539 80.899,72.594C81.513,72.758 82.024,73.153 82.345,73.699L87.704,82.981C88.017,83.528 88.099,84.168 87.935,84.781L87.934,84.782ZM67.243,39.516C58.72,39.516 51.786,46.449 51.786,54.973C51.786,63.496 58.72,70.43 67.243,70.43C75.767,70.43 82.7,63.496 82.7,54.973C82.7,46.453 75.767,39.516 67.243,39.516ZM54.696,23.141C54.696,25.219 56.388,26.906 58.462,26.906L67.731,26.906L54.696,13.871L54.696,23.141ZM59.989,77.528L25.247,77.528C22.607,77.528 20.454,75.379 20.454,72.735L20.454,21.704L16.778,21.704C14.7,21.704 13.013,23.391 13.013,25.469L13.013,81.293C13.013,83.371 14.7,85.059 16.778,85.059L56.223,85.059C58.302,85.059 59.989,83.371 59.989,81.293L59.989,77.528ZM68.458,71.395C68.056,71.426 67.653,71.457 67.243,71.457C58.153,71.457 50.759,64.063 50.759,54.973C50.759,45.884 58.154,38.489 67.243,38.489C67.653,38.489 68.056,38.521 68.458,38.552L68.458,27.935L58.462,27.935C55.821,27.935 53.669,25.786 53.669,23.142L53.669,13.146L25.247,13.146C23.169,13.146 21.481,14.833 21.481,16.911L21.481,72.735C21.481,74.813 23.169,76.501 25.247,76.501L64.692,76.501C66.77,76.501 68.458,74.813 68.458,72.735L68.458,71.395ZM74.169,69.914L76.669,74.246C76.708,74.223 76.739,74.192 76.778,74.168L79.095,72.832C79.134,72.809 79.177,72.797 79.216,72.778L76.716,68.446C75.919,69.004 75.063,69.496 74.169,69.914L74.169,69.914ZM86.81,83.492L81.451,74.211C81.271,73.899 80.978,73.676 80.63,73.582C80.283,73.488 79.919,73.535 79.607,73.715L77.29,75.051C76.646,75.422 76.423,76.25 76.798,76.895L82.158,86.176C82.529,86.82 83.357,87.043 84.001,86.672L86.318,85.336C86.63,85.156 86.853,84.863 86.947,84.516C87.037,84.168 86.99,83.805 86.81,83.492L86.81,83.492ZM67.244,41.687C74.572,41.687 80.529,47.648 80.529,54.972C80.529,62.3 74.568,68.257 67.244,68.257C59.916,68.257 53.959,62.296 53.959,54.972C53.959,47.648 59.916,41.687 67.244,41.687ZM67.244,42.715C60.482,42.715 54.982,48.215 54.982,54.977C54.982,61.738 60.482,67.239 67.244,67.239C74.006,67.239 79.506,61.739 79.506,54.977C79.506,48.215 74.006,42.715 67.244,42.715ZM75.228,53.317C75.342,53.86 75.396,54.418 75.396,54.977C75.396,55.262 75.627,55.489 75.908,55.489C76.193,55.489 76.42,55.258 76.42,54.977C76.42,54.348 76.357,53.719 76.228,53.11C76.17,52.832 75.9,52.653 75.623,52.711C75.349,52.766 75.174,53.039 75.228,53.317L75.228,53.317ZM66.732,46.305C66.732,46.59 66.963,46.817 67.244,46.817C70.135,46.817 72.834,48.371 74.295,50.871C74.388,51.035 74.56,51.125 74.74,51.125C74.826,51.125 74.916,51.102 74.998,51.055C75.244,50.91 75.326,50.598 75.181,50.352C73.541,47.539 70.498,45.789 67.244,45.789C66.959,45.793 66.732,46.024 66.732,46.305L66.732,46.305Z" style="fill-rule:nonzero;"/>
    </g>
</svg>
