<?xml version="1.0" encoding="UTF-8" standalone="no"?>
<!DOCTYPE svg PUBLIC "-//W3C//DTD SVG 1.1//EN" "http://www.w3.org/Graphics/SVG/1.1/DTD/svg11.dtd">
<svg width="100%" height="100%" viewBox="0 0 1000 1000" version="1.1" xmlns="http://www.w3.org/2000/svg" xmlns:xlink="http://www.w3.org/1999/xlink" xml:space="preserve" xmlns:serif="http://www.serif.com/" style="fill-rule:evenodd;clip-rule:evenodd;stroke-linejoin:round;stroke-miterlimit:2;">
    <g transform="matrix(11.220679,0,0,11.220679,-60.819633,-115.963379)">
        <path d="M56.942,78.578L43.059,78.578C41.68,78.578 40.559,79.699 40.559,81.078C40.559,82.461 41.68,83.578 43.059,83.578L56.942,83.578C58.321,83.578 59.442,82.461 59.442,81.078C59.442,79.699 58.321,78.578 56.942,78.578ZM55.301,87.289L44.699,87.289L45.5,89.629C45.781,90.437 46.328,91.289 47.16,91.289L52.852,91.289C53.672,91.289 54.223,90.437 54.5,89.629L55.301,87.289ZM62.301,77.879C63.227,79.414 63.446,81.273 62.899,82.976C62.352,84.683 61.094,86.07 59.45,86.781L58.051,90.781C57.2,93.179 55.329,95 52.852,95L47.161,95C44.673,95 42.809,93.18 42.001,90.828L40.61,86.828C38.333,85.848 36.856,83.609 36.852,81.129C36.848,80 37.161,78.894 37.751,77.93C37.489,75.058 36.813,72.238 35.751,69.558C34.352,66.039 32.567,62.687 30.43,59.558C26.329,53.41 23.43,49.918 23.43,41.339C23.43,31.855 28.493,23.089 36.703,18.347C44.918,13.605 55.039,13.605 63.254,18.347C71.469,23.09 76.531,31.855 76.531,41.339C76.531,49.82 73.742,53.339 69.68,59.339C65.828,65.078 62.758,71.468 62.231,77.89L62.301,77.879ZM41.61,49.512L43.899,49.512L43.899,47.219C43.899,46.293 43.344,45.457 42.489,45.105C41.629,44.75 40.645,44.945 39.992,45.601C39.336,46.254 39.141,47.242 39.496,48.098C39.848,48.953 40.684,49.512 41.61,49.512L41.61,49.512ZM56.102,47.219L56.102,49.508L58.391,49.508L58.391,49.512C59.317,49.512 60.152,48.953 60.504,48.098C60.86,47.242 60.664,46.254 60.008,45.602C59.356,44.945 58.371,44.75 57.512,45.105C56.656,45.457 56.102,46.293 56.102,47.219L56.102,47.219ZM43.899,77.879C42.832,78.863 41.492,75.051 41.141,75.172C40.121,69 37.199,63 33.489,57.461C29.778,51.922 27.16,48.742 27.16,41.289C27.328,33.242 31.719,25.875 38.719,21.898C45.719,17.925 54.293,17.925 61.293,21.898C68.29,25.874 72.68,33.242 72.852,41.289C72.852,48.05 70.731,51.187 67.313,56.289L66.634,57.289C62.864,62.91 59.895,68.988 58.872,75.199C58.517,75.081 57.177,78.867 56.103,77.879L56.103,53.218L58.392,53.218C60.817,53.218 63.005,51.757 63.935,49.515C64.864,47.273 64.349,44.691 62.634,42.976C60.919,41.261 58.337,40.746 56.095,41.675C53.853,42.605 52.392,44.793 52.392,47.218L52.392,49.507L47.61,49.511L47.61,47.218C47.61,44.793 46.15,42.605 43.907,41.675C41.665,40.746 39.083,41.261 37.368,42.976C35.653,44.691 35.138,47.273 36.067,49.515C36.997,51.757 39.185,53.218 41.61,53.218L43.9,53.218L43.899,77.879ZM52.387,77.93L52.391,53.218L47.61,53.218L47.61,77.879L52.387,77.93Z" style="stroke:black;stroke-width:1.86px;"/>
    </g>
</svg>
