<?xml version="1.0" encoding="UTF-8" standalone="no"?>
<!DOCTYPE svg PUBLIC "-//W3C//DTD SVG 1.1//EN" "http://www.w3.org/Graphics/SVG/1.1/DTD/svg11.dtd">
<svg width="100%" height="100%" viewBox="0 0 1000 1000" version="1.1" xmlns="http://www.w3.org/2000/svg" xmlns:xlink="http://www.w3.org/1999/xlink" xml:space="preserve" xmlns:serif="http://www.serif.com/" style="fill-rule:evenodd;clip-rule:evenodd;stroke-linejoin:round;stroke-miterlimit:2;">
    <g transform="matrix(15.564303,0,0,15.564303,-62.957561,-313.245539)">
        <path d="M64.75,45.601C64.75,41.187 62.183,37.056 58,34.641L58,29.945C58,27.561 56.768,25.425 54.702,24.233C52.638,23.041 50.17,23.04 48.103,24.231L33,32.952C32.977,32.965 32.96,32.986 32.938,33L20.796,33C14.691,33 9.287,37.162 7.948,42.896C7.02,46.869 7.914,50.944 10.398,54.075C11.86,55.918 13.755,57.282 15.875,58.106L21.274,74.92C21.992,77.194 23.554,79.053 25.671,80.152C26.962,80.823 28.364,81.163 29.778,81.163C30.682,81.163 31.59,81.023 32.477,80.743C34.752,80.025 36.611,78.464 37.71,76.347C38.81,74.23 39.019,71.812 38.3,69.54L35.123,59.45L48.118,66.953C49.149,67.548 50.28,67.846 51.411,67.846C52.542,67.846 53.674,67.548 54.705,66.952C56.77,65.762 58,63.629 58,61.248L58,56.559C62.131,54.162 64.75,49.963 64.75,45.601ZM13.532,51.589C11.81,49.42 11.195,46.582 11.843,43.806C12.764,39.862 16.529,37 20.796,37L32,37L32,55L20.585,55C17.823,55 15.252,53.757 13.532,51.589ZM34.162,74.503C33.556,75.671 32.53,76.532 31.273,76.929C30.019,77.326 28.684,77.209 27.515,76.603C26.346,75.997 25.485,74.97 25.085,73.707L20.36,58.987C20.435,58.989 20.509,59 20.585,59L30.791,59L34.488,70.745C34.885,72 34.77,73.335 34.162,74.503ZM54,61.248C54,62.596 53.096,63.264 52.707,63.488C52.317,63.713 51.286,64.161 50.12,63.488L36,55.337L36,35.839L50.103,27.695C51.277,27.018 52.311,27.469 52.703,27.696C53.092,27.921 54,28.592 54,29.944L54,61.248ZM58,51.571L58,39.631C59.715,41.285 60.75,43.426 60.75,45.6C60.75,47.785 59.716,49.92 58,51.571Z" style="fill-rule:nonzero;stroke:black;stroke-width:1.34px;"/>
    </g>
</svg>
