<?xml version="1.0" encoding="UTF-8" standalone="no"?>
<!DOCTYPE svg PUBLIC "-//W3C//DTD SVG 1.1//EN" "http://www.w3.org/Graphics/SVG/1.1/DTD/svg11.dtd">
<svg width="100%" height="100%" viewBox="0 0 1000 1000" version="1.1" xmlns="http://www.w3.org/2000/svg" xmlns:xlink="http://www.w3.org/1999/xlink" xml:space="preserve" xmlns:serif="http://www.serif.com/" style="fill-rule:evenodd;clip-rule:evenodd;stroke-linejoin:round;stroke-miterlimit:2;">
    <g transform="matrix(9.782609,0,0,9.782609,10.869565,10.869565)">
        <path d="M94,46L95,46C95.552,46 96,45.552 96,45L96,41C96,40.448 95.552,40 95,40L93,40L93,37C93,36.448 92.552,36 92,36L75,36L75,33.5C75,33.15 74.817,32.825 74.517,32.644L51,18.436L51,14.351L67,10L50,4C49.448,4 49,4.448 49,5L49,18.436L25.483,32.644C25.183,32.825 25,33.15 25,33.5L25,36L8,36C7.448,36 7,36.448 7,37L7,40L5,40C4.448,40 4,40.448 4,41L4,45C4,45.552 4.448,46 5,46L6,46L6,95C6,95.552 6.448,96 7,96L93,96C93.552,96 94,95.552 94,95L94,46ZM25,94L25,46L8,46L8,94L25,94ZM67,94L73,94L73,34.064L50,20.168L27,34.064L27,94L33,94L33,91C33,90.448 33.448,90 34,90L35,90L35,87C35,86.448 35.448,86 36,86L36.5,86L36.5,63.594C36.5,61.049 37.511,58.609 39.31,56.81C41.109,55.011 43.549,54 46.094,54L53.906,54C56.451,54 58.891,55.011 60.69,56.81C62.489,58.609 63.5,61.049 63.5,63.594L63.5,86L64,86C64.552,86 65,86.448 65,87L65,90L66,90C66.552,90 67,90.448 67,91L67,94ZM35,94L65,94L65,92L35,92L35,94ZM92,94L92,46L75,46L75,94L92,94ZM37,90L63,90L63,88L37,88L37,90ZM51,56L51,86L61.5,86L61.5,63.594C61.5,61.58 60.7,59.648 59.276,58.224C57.852,56.8 55.92,56 53.906,56L51,56ZM49,56L46.094,56C44.08,56 42.148,56.8 40.724,58.224C39.3,59.648 38.5,61.58 38.5,63.594L38.5,86L49,86L49,56ZM50,29C45.033,29 41,33.033 41,38C41,42.967 45.033,47 50,47C54.967,47 59,42.967 59,38C59,33.033 54.967,29 50,29ZM50,31C53.863,31 57,34.137 57,38C57,41.863 53.863,45 50,45C46.137,45 43,41.863 43,38C43,34.137 46.137,31 50,31ZM94,42L75,42L75,44L94,44L94,42ZM25,42L6,42L6,44L25,44L25,42ZM75,38L75,40L91,40L91,38L75,38ZM25,38L9,38L9,40L25,40L25,38ZM67,10L51,14.351L51,4.353L67,10Z" style="stroke:black;stroke-width:2.13px;"/>
    </g>
</svg>
