<?xml version="1.0" encoding="UTF-8" standalone="no"?>
<!DOCTYPE svg PUBLIC "-//W3C//DTD SVG 1.1//EN" "http://www.w3.org/Graphics/SVG/1.1/DTD/svg11.dtd">
<svg width="100%" height="100%" viewBox="110 80 780 780" version="1.1" xmlns="http://www.w3.org/2000/svg" xmlns:xlink="http://www.w3.org/1999/xlink" xml:space="preserve" xmlns:serif="http://www.serif.com/" style="fill-rule:evenodd;clip-rule:evenodd;stroke-linecap:round;stroke-linejoin:round;stroke-miterlimit:1.5;">
    <g>
        <g transform="matrix(1.183767,0,0,1.183767,-238.078867,-186.636945)">
            <path d="M611.758,263.534C613.863,258.943 618.45,256 623.5,256C628.55,256 633.137,258.943 635.242,263.534L720.349,449.199L923.226,472.767C928.243,473.35 932.459,476.803 934.02,481.606C935.581,486.409 934.199,491.681 930.483,495.101L780.204,633.416L820.483,833.647C821.479,838.598 819.498,843.676 815.412,846.644C811.326,849.612 805.885,849.927 801.484,847.45L623.5,747.269L445.516,847.45C441.115,849.927 435.674,849.612 431.588,846.644C427.502,843.676 425.521,838.598 426.517,833.647L466.796,633.416L316.517,495.101C312.801,491.681 311.419,486.409 312.98,481.606C314.541,476.803 318.757,473.35 323.774,472.767L526.651,449.199L611.758,263.534Z" style="stroke:black;stroke-width:15.21px;"/>
        </g>
    </g>
</svg>
