<?xml version="1.0" encoding="UTF-8" standalone="no"?>
<!DOCTYPE svg PUBLIC "-//W3C//DTD SVG 1.1//EN" "http://www.w3.org/Graphics/SVG/1.1/DTD/svg11.dtd">
<svg width="100%" height="100%" viewBox="0 0 1000 1000" version="1.1" xmlns="http://www.w3.org/2000/svg" xmlns:xlink="http://www.w3.org/1999/xlink" xml:space="preserve" xmlns:serif="http://www.serif.com/" style="fill-rule:evenodd;clip-rule:evenodd;stroke-linejoin:round;stroke-miterlimit:2;">
    <path d="M500,50C251.874,50 50,251.874 50,500C50,748.126 251.874,950 500,950C748.126,950 950,748.126 950,500C950,251.874 748.126,50 500,50ZM500,910.87C273.435,910.87 89.13,726.565 89.13,500C89.13,273.435 273.435,89.13 500,89.13C726.565,89.13 910.87,273.435 910.87,500C910.87,726.565 726.565,910.87 500,910.87ZM681.125,799.972C677.662,799.972 674.171,799.154 670.981,797.463L499.996,707.58L329.012,797.463C321.73,801.336 312.786,800.681 306.049,795.8C299.341,790.918 295.96,782.655 297.377,774.474L330.048,584.096L191.735,449.323C185.79,443.514 183.663,434.869 186.226,426.961C188.79,419.053 195.635,413.299 203.843,412.099L394.982,384.337L480.447,211.167C487.783,196.278 512.244,196.278 519.553,211.167L605.017,384.337L796.157,412.099C804.393,413.299 811.183,419.053 813.773,426.961C816.337,434.869 814.21,443.514 808.265,449.323L669.952,584.123L702.622,774.502C704.013,782.683 700.659,790.946 693.95,795.828C690.16,798.582 685.633,800 681.133,800L681.125,799.972Z" style="fill-rule:nonzero;stroke:black;stroke-width:20.83px;"/>
</svg>
