<?xml version="1.0" encoding="UTF-8" standalone="no"?>
<!DOCTYPE svg PUBLIC "-//W3C//DTD SVG 1.1//EN" "http://www.w3.org/Graphics/SVG/1.1/DTD/svg11.dtd">
<svg width="100%" height="100%" viewBox="0 0 1000 1000" version="1.1" xmlns="http://www.w3.org/2000/svg" xmlns:xlink="http://www.w3.org/1999/xlink" xml:space="preserve" xmlns:serif="http://www.serif.com/" style="fill-rule:evenodd;clip-rule:evenodd;stroke-linejoin:round;stroke-miterlimit:2;">
    <g transform="matrix(8.917298,0,0,8.917298,72.749114,99.074308)">
        <path d="M50.893,18.365L53.131,17.708C53.573,17.578 54.046,17.767 54.277,18.165L55.323,19.965L58.619,20.773L62.003,20.773C62.368,20.773 62.703,20.971 62.879,21.291L63.617,22.631L64.705,21.945C64.977,21.774 65.315,21.744 65.612,21.864L68.249,22.928L69.885,21.936C70.194,21.749 70.58,21.743 70.894,21.92L74.437,23.917L78.81,22.172C79.108,22.052 79.446,22.084 79.717,22.256L80.701,22.881L81.9,22.224C82.198,22.06 82.558,22.059 82.857,22.221L88.216,25.123L90.21,25.123C90.762,25.123 91.21,25.571 91.21,26.123L91.21,38.449L92.759,40.722C92.788,40.765 93.506,42.622 94.91,46.293C94.953,46.406 94.976,46.527 94.976,46.649L94.976,48.684C94.976,48.793 94.958,48.901 94.923,49.004L93.826,52.25L93.826,55.561C93.826,55.772 93.759,55.978 93.635,56.149L91.81,58.66C91.707,58.802 91.568,58.914 91.408,58.985L87.516,60.721C87.104,60.905 86.621,60.791 86.335,60.442L85.013,58.832L84.481,58.907L85.245,61.907C85.346,62.308 85.192,62.729 84.855,62.969L78.011,67.837C77.809,67.981 77.56,68.044 77.314,68.015L73.95,67.615L74.382,68.931C74.648,69.74 73.845,70.489 73.056,70.169L71.864,69.686L71.64,70.237C71.521,70.529 71.271,70.749 70.965,70.828L69.651,71.17L70.285,72.926C70.52,73.578 70.037,74.265 69.344,74.265C69.334,74.316 69.333,74.849 69.339,75.863C69.339,76.416 68.891,76.863 68.339,76.863L66.238,76.863L66.238,77.183L66.859,77.319C67.263,77.408 67.571,77.736 67.633,78.145L68.243,82.152L69.317,87.217C69.376,87.493 69.315,87.782 69.149,88.011L68.075,89.495C67.75,89.944 67.122,90.043 66.674,89.715L64.911,88.424L62.003,88.424C61.848,88.424 61.694,88.388 61.555,88.318L58.136,86.604L54.402,85.56C54.008,85.45 53.721,85.111 53.677,84.705L53.408,82.223L51.895,80.834C51.723,80.676 51.612,80.463 51.58,80.232L51.013,76.076L50.041,75.272L46.334,71.144C46.272,71.075 46.22,70.996 46.179,70.912L41.681,61.587L38.463,59.024L32.375,58.164L30.64,58.619L27.539,64.457C27.294,64.917 26.738,65.113 26.259,64.906L16.586,60.726C16.337,60.618 16.142,60.414 16.046,60.16L14.711,56.609L13.472,52.636L11.063,50.385L4.011,44.501L1.192,42.038C0.974,41.848 0.85,41.573 0.85,41.285L0.85,39.574C0.85,39.021 1.297,38.574 1.85,38.574L26.168,38.574L26.168,1.012C26.168,0.46 26.615,0.012 27.168,0.012L48.652,0.012C49.204,0.012 49.652,0.46 49.652,1.012L49.652,17.382L50.893,18.365Z" style="fill:none;stroke:black;stroke-width:6.07px;"/>
    </g>
</svg>
